<?xml version="1.0" encoding="UTF-8" standalone="no"?>
<!DOCTYPE svg PUBLIC "-//W3C//DTD SVG 1.1//EN" "http://www.w3.org/Graphics/SVG/1.1/DTD/svg11.dtd">
<svg width="100%" height="100%" viewBox="0 0 272 47" version="1.1" xmlns="http://www.w3.org/2000/svg" xmlns:xlink="http://www.w3.org/1999/xlink" xml:space="preserve" xmlns:serif="http://www.serif.com/" style="fill-rule:evenodd;clip-rule:evenodd;stroke-linejoin:round;stroke-miterlimit:2;">
    <g transform="matrix(1,0,0,1,-32.9117,-82.549)">
        <g id="BP01" transform="matrix(1.73572e-16,-2.83465,2.83465,1.73572e-16,-321.456,280.326)">
            <path d="M66.841,217.634L69.771,217.634L69.771,201.431L66.841,201.431L66.841,196.453L54.853,196.453L54.853,193.453L66.841,193.453L66.841,138.495L54.853,138.495L54.853,135.495L66.841,135.495L66.841,134.589L69.771,134.589L69.771,128.028L66.841,128.028L66.841,125.013L60,125.013L60,128.028L53.271,128.028L53.271,217.634L60,217.634L60,220.625L66.841,220.625L66.841,217.634Z" style="fill:rgb(230,210,189);fill-rule:nonzero;"/>
        </g>
    </g>
</svg>
