<?xml version="1.0" encoding="UTF-8" standalone="no"?>
<!DOCTYPE svg PUBLIC "-//W3C//DTD SVG 1.1//EN" "http://www.w3.org/Graphics/SVG/1.1/DTD/svg11.dtd">
<svg width="100%" height="100%" viewBox="0 0 272 47" version="1.1" xmlns="http://www.w3.org/2000/svg" xmlns:xlink="http://www.w3.org/1999/xlink" xml:space="preserve" xmlns:serif="http://www.serif.com/" style="fill-rule:evenodd;clip-rule:evenodd;stroke-linejoin:round;stroke-miterlimit:2;">
    <g transform="matrix(1,0,0,1,-32.9117,-25.9229)">
        <g id="BP03" transform="matrix(1.73572e-16,-2.83465,2.83465,1.73572e-16,-322.593,280.837)">
            <path d="M86.928,221L89.928,220.968L89.928,218.011L86.928,218.011L86.941,198.311L89.928,198.311L89.928,191.759L86.928,191.759L86.928,153.232L89.928,153.232L89.928,131.877L86.941,131.877L86.941,128.42L80.943,128.42L80.943,125.414L73.428,125.414L73.428,142.06L80.943,142.06L80.943,153.232L73.428,153.232L73.428,218.011L83.139,218.011L83.139,221.033L86.928,221ZM74.941,138.886L74.941,135.886L86.941,135.886L86.941,138.886L74.941,138.886ZM74.941,196.841L74.941,193.844L86.941,193.844L86.941,196.841L74.941,196.841Z" style="fill:rgb(230,210,189);fill-rule:nonzero;"/>
        </g>
    </g>
</svg>
