<?xml version="1.0" encoding="UTF-8" standalone="no"?>
<!DOCTYPE svg PUBLIC "-//W3C//DTD SVG 1.1//EN" "http://www.w3.org/Graphics/SVG/1.1/DTD/svg11.dtd">
<svg width="100%" height="100%" viewBox="0 0 18 29" version="1.1" xmlns="http://www.w3.org/2000/svg" xmlns:xlink="http://www.w3.org/1999/xlink" xml:space="preserve" xmlns:serif="http://www.serif.com/" style="fill-rule:evenodd;clip-rule:evenodd;stroke-linejoin:round;stroke-miterlimit:2;">
    <g transform="matrix(1,0,0,1,-160.022,-367.47)">
        <g id="BP06" transform="matrix(2.83465,0,0,2.83465,-37.6679,45.1003)">
            <path d="M74.33,120.723L75.385,120.724L75.374,120.723L75.279,120.716L75.223,120.707L75.069,120.67L75.037,120.659L74.978,120.634L74.937,120.614L74.827,120.552L74.782,120.517L74.707,120.456L74.678,120.422L74.573,120.304L74.561,120.285L74.509,120.204L74.503,120.194L74.498,120.184L74.493,120.173L74.465,120.116L74.457,120.095L74.419,119.974L74.416,119.963L74.411,119.941L74.408,119.93L74.389,119.804L74.387,119.782L74.385,119.738L74.385,119.727L74.386,119.716L74.395,119.589L74.396,119.577L74.397,119.566L74.413,119.482L74.417,119.471L74.42,119.46L74.476,119.311L74.48,119.3L74.489,119.28L74.494,119.27L74.525,119.214L74.531,119.204L74.544,119.185L74.558,119.167L74.633,119.064L74.649,119.048L74.705,118.994L74.842,118.861L74.865,118.836L74.999,118.698L75.06,118.619L75.234,118.389L75.252,118.36L75.304,118.278L75.397,118.11L75.444,118.021L75.485,117.933L75.554,117.755L75.59,117.661L75.643,117.475L75.66,117.41L75.681,117.316L75.695,117.217L75.725,117.027L75.737,116.834L75.739,116.767L75.735,116.575L75.732,116.509L75.709,116.308L75.705,116.278L75.695,116.22L75.657,116.022L75.632,115.936L75.541,115.648L75.53,115.62L75.491,115.527L75.452,115.446L75.31,115.178L75.277,115.128L75.166,114.959L75.13,114.912L75.003,114.755L74.963,114.711L74.824,114.566L74.748,114.498L74.704,114.457L74.465,114.274L74.417,114.238L74.245,114.133L74.168,114.086L74.079,114.04L74.025,114.015L73.745,113.899L73.689,113.878L73.592,113.848L73.534,113.832L73.239,113.767L73.181,113.757L72.98,113.735L72.921,113.73L72.82,113.725L72.754,113.725L72.562,113.73L72.465,113.737L72.363,113.748L72.079,113.8L71.98,113.824L71.795,113.877L71.731,113.9L71.552,113.969L71.489,113.998L71.402,114.039L71.344,114.073L71.091,114.217L71.035,114.256L70.882,114.369L70.829,114.413L70.683,114.539L70.612,114.613L70.478,114.751L70.357,114.901L70.296,114.983L70.19,115.144L70.172,115.173L70.079,115.343L70.047,115.403L70.006,115.489L69.967,115.584L69.868,115.855L69.858,115.888L69.832,115.981L69.811,116.081L69.774,116.269L69.77,116.303L69.745,116.59L69.742,116.624L69.741,116.658L69.741,116.754L69.741,116.789L69.743,116.822L69.768,117.111L69.771,117.145L69.775,117.179L69.812,117.368L69.818,117.401L69.826,117.434L69.911,117.71L69.931,117.775L69.967,117.864L70.007,117.958L70.091,118.132L70.142,118.221L70.242,118.386L70.416,118.615L70.478,118.696L70.612,118.835L70.635,118.86L70.772,118.993L70.821,119.04L70.866,119.091L70.959,119.222L70.999,119.308L71.025,119.358L71.06,119.48L71.068,119.502L71.075,119.535L71.081,119.566L71.093,119.738L71.08,119.864L71.073,119.921L71.049,120.014L71.043,120.036L71.021,120.095L71.008,120.124L70.984,120.176L70.9,120.31L70.888,120.329L70.817,120.412L70.748,120.478L70.713,120.507L70.635,120.563L70.625,120.57L70.513,120.627L70.463,120.652L70.373,120.683L70.328,120.694L70.171,120.718L70.137,120.722L70.125,120.722L71.33,120.722L71.33,123.691L74.33,123.691L74.33,120.723ZM72.677,117.943L72.566,117.933L72.467,117.914L72.413,117.902L72.376,117.89L72.254,117.845L72.214,117.827L72.087,117.757L72.077,117.75L71.959,117.666L71.951,117.659L71.85,117.561L71.83,117.541L71.803,117.506L71.697,117.361L71.679,117.332L71.675,117.323L71.612,117.196L71.579,117.107L71.574,117.096L71.57,117.083L71.537,116.951L71.532,116.92L71.52,116.828L71.519,116.799L71.519,116.647L71.52,116.617L71.521,116.603L71.534,116.513L71.536,116.502L71.587,116.317L71.591,116.307L71.596,116.294L71.674,116.124L71.686,116.103L71.688,116.1L71.794,115.95L71.812,115.928L71.907,115.827L71.917,115.818L71.924,115.812L72.036,115.722L72.117,115.671L72.126,115.665L72.135,115.66L72.309,115.579L72.316,115.576L72.333,115.57L72.509,115.521L72.538,115.516L72.676,115.502L72.69,115.501L72.795,115.501L72.806,115.502L72.996,115.528L73.043,115.539L73.054,115.541L73.075,115.548L73.21,115.593L73.221,115.599L73.348,115.662L73.371,115.677L73.448,115.727L73.558,115.813L73.568,115.822L73.576,115.83L73.674,115.934L73.681,115.943L73.766,116.058L73.772,116.067L73.827,116.16L73.832,116.169L73.871,116.256L73.876,116.269L73.92,116.4L73.924,116.414L73.95,116.55L73.953,116.564L73.962,116.749L73.963,116.763L73.963,116.777L73.959,116.823L73.955,116.849L73.924,117.033L73.909,117.077L73.906,117.091L73.901,117.105L73.833,117.272L73.826,117.286L73.821,117.296L73.772,117.38L73.765,117.39L73.651,117.54L73.643,117.549L73.636,117.557L73.493,117.687L73.485,117.693L73.455,117.713L73.307,117.807L73.228,117.844L73.211,117.853L73.198,117.858L73.021,117.913L73.007,117.917L72.994,117.919L72.764,117.944L72.738,117.946L72.677,117.943Z" style="fill:rgb(172,142,111);fill-rule:nonzero;"/>
        </g>
    </g>
</svg>
