<?xml version="1.0" encoding="UTF-8" standalone="no"?>
<!DOCTYPE svg PUBLIC "-//W3C//DTD SVG 1.1//EN" "http://www.w3.org/Graphics/SVG/1.1/DTD/svg11.dtd">
<svg width="100%" height="100%" viewBox="0 0 342 567" version="1.1" xmlns="http://www.w3.org/2000/svg" xmlns:xlink="http://www.w3.org/1999/xlink" xml:space="preserve" xmlns:serif="http://www.serif.com/" style="fill-rule:evenodd;clip-rule:evenodd;stroke-linejoin:round;stroke-miterlimit:2;">
    <g transform="matrix(1,0,0,1,-254.277,-141.763)">
        <g transform="matrix(2.83465,0,0,2.83465,496.994,347.074)">
            <path d="M-85.625,28.519L-85.55,23.532L-85.225,18.556L-84.653,13.602L-83.833,8.686L-82.77,3.814L-81.464,-0.998L-79.923,-5.741L-78.148,-10.399L-76.139,-14.962L-73.906,-19.421L-71.455,-23.764L-68.79,-27.978L-65.919,-32.054L-62.847,-35.983L-59.584,-39.75L-56.138,-43.355L-52.515,-46.781L-48.727,-50.021L-44.779,-53.071L-40.688,-55.919L-36.458,-58.559L-32.102,-60.985L-27.632,-63.193L-23.055,-65.174L-18.387,-66.924L-13.636,-68.439L-8.817,-69.714L-3.938,-70.749L0.984,-71.541L5.939,-72.084L10.918,-72.379L15.904,-72.429L20.886,-72.228L25.852,-71.778L30.356,-71.136L30.645,-71.105L30.802,-71.08L31.401,-70.939L31.435,-70.93L32.012,-70.714L32.055,-70.695L32.602,-70.402L32.641,-70.376L33.141,-70.014L33.592,-69.592L33.627,-69.559L33.643,-69.54L34.033,-69.061L34.05,-69.035L34.377,-68.507L34.557,-68.132L34.577,-68.086L34.835,-67.296L34.935,-66.682L34.943,-66.652L34.946,-66.602L34.968,-66.187L34.934,-65.565L34.931,-65.535L34.813,-64.924L34.809,-64.904L34.689,-64.505L34.68,-64.477L34.433,-63.906L34.42,-63.878L33.983,-63.175L33.967,-63.149L33.954,-63.133L33.547,-62.659L33.526,-62.638L32.895,-62.099L32.871,-62.08L32.155,-61.66L32.12,-61.64L31.345,-61.345L31.317,-61.335L30.707,-61.209L30.678,-61.202L30.264,-61.16L30.234,-61.157L29.403,-61.187L29.352,-61.19L29.148,-61.218L24.703,-61.844L20.233,-62.248L15.751,-62.428L11.263,-62.386L6.782,-62.121L2.322,-61.63L-2.106,-60.918L-6.497,-59.987L-10.837,-58.838L-15.109,-57.476L-19.314,-55.899L-23.43,-54.117L-27.456,-52.132L-31.376,-49.949L-35.181,-47.573L-38.865,-45.009L-42.416,-42.263L-45.826,-39.348L-49.087,-36.264L-52.19,-33.019L-55.124,-29.627L-57.892,-26.093L-60.475,-22.424L-62.871,-18.631L-65.08,-14.724L-67.089,-10.71L-68.896,-6.603L-70.495,-2.41L-71.883,1.859L-73.056,6.188L-74.013,10.575L-74.751,15L-75.264,19.456L-75.557,23.936L-75.627,28.423L-75.471,32.906L-75.095,37.378L-74.494,41.827L-73.671,46.237L-72.631,50.604L-71.374,54.91L-69.905,59.152L-68.223,63.311L-66.339,67.385L-64.255,71.357L-61.974,75.223L-59.503,78.969L-56.848,82.587L-54.018,86.071L-51.016,89.405L-47.852,92.586L-44.533,95.608L-41.067,98.461L-37.465,101.134L-33.733,103.627L-29.882,105.93L-25.92,108.038L-21.861,109.948L-17.707,111.65L-13.476,113.144L-9.174,114.427L-4.817,115.493L-0.411,116.337L-0.411,116.338L4.034,116.963L8.504,117.367L12.99,117.549L17.476,117.506L21.955,117.24L26.415,116.75L30.847,116.04L31.028,117.021L29.353,117.334L30.309,123.261L32.129,122.92L32.676,125.868L32.676,125.869L27.754,126.658L22.798,127.203L17.822,127.5L12.833,127.549L7.851,127.347L2.887,126.898L-2.05,126.204L-6.948,125.261L-11.792,124.079L-16.57,122.653L-21.27,120.993L-25.885,119.101L-30.397,116.98L-34.798,114.639L-39.078,112.079L-43.225,109.31L-47.226,106.336L-51.077,103.17L-54.765,99.814L-58.281,96.275L-61.614,92.571L-64.762,88.701L-67.711,84.682L-70.455,80.518L-72.99,76.227L-75.306,71.809L-77.404,67.285L-79.266,62.66L-80.901,57.95L-82.297,53.164L-83.453,48.312L-84.364,43.411L-85.035,38.469L-85.453,33.5L-85.625,28.519ZM-77.31,59.3L-76.033,62.773L-70.451,60.564L-71.627,57.368L-77.31,59.3ZM-54.557,-40.715L-50.272,-36.516L-47.825,-38.89L-51.903,-43.295L-54.557,-40.715ZM-69.157,76.913L-67.215,80.062L-62.185,76.787L-63.975,73.885L-69.157,76.913ZM-22.153,117.442L-18.697,118.77L-16.682,113.118L-19.864,111.892L-22.153,117.442ZM-35.487,-55.669L-32.375,-50.536L-29.417,-52.23L-32.275,-57.507L-35.487,-55.669ZM-73.815,-12.885L-68.348,-10.411L-66.865,-13.484L-72.21,-16.22L-73.815,-12.885ZM-57.665,92.55L-55.136,95.249L-50.856,91.039L-53.188,88.55L-57.665,92.55ZM-66.583,81.031L-64.484,84.08L-59.625,80.558L-61.556,77.75L-66.583,81.031ZM-82.635,25.877L-82.628,29.576L-76.626,29.422L-76.634,26.012L-82.635,25.877ZM-54.32,96.076L-51.659,98.642L-47.595,94.226L-50.049,91.859L-54.32,96.076ZM-43.558,-50.265L-39.95,-45.471L-37.177,-47.452L-40.549,-52.417L-43.558,-50.265ZM-80.024,49.971L-79.1,53.554L-73.326,51.917L-74.176,48.615L-80.024,49.971ZM-60.827,88.859L-58.438,91.683L-53.953,87.693L-56.158,85.092L-60.827,88.859ZM1.263,123.69L4.94,124.121L5.49,118.141L2.104,117.744L1.263,123.69ZM20.299,118.382L20.657,124.373L24.343,124.064L23.697,118.096L20.299,118.382ZM6.093,124.223L9.783,124.469L10.035,118.473L6.635,118.247L6.093,124.223ZM15.746,118.567L15.804,124.567L19.5,124.443L19.152,118.451L15.746,118.567ZM-17.607,119.155L-14.088,120.31L-12.36,114.565L-15.599,113.501L-17.607,119.155ZM-71.68,-17.252L-66.343,-14.506L-64.709,-17.5L-69.908,-20.497L-71.68,-17.252ZM-35.195,110.962L-31.982,112.789L-29.138,107.503L-32.104,105.819L-35.195,110.962ZM-82.607,24.718L-76.606,24.864L-76.44,21.459L-82.429,21.021L-82.607,24.718ZM-82.317,35.587L-81.939,39.269L-75.985,38.516L-76.332,35.122L-82.317,35.587ZM-61.039,-33.48L-56.356,-29.728L-54.16,-32.335L-58.658,-36.312L-61.039,-33.48ZM-73.673,68.31L-72.058,71.637L-66.725,68.885L-68.217,65.818L-73.673,68.31ZM-81.088,10.232L-75.177,11.274L-74.506,7.931L-80.358,6.605L-81.088,10.232ZM-66.765,-25.632L-61.731,-22.366L-59.807,-25.182L-64.679,-28.687L-66.765,-25.632ZM-78.784,54.669L-77.681,58.203L-71.998,56.278L-73.012,53.021L-78.784,54.669ZM-81.027,45.218L-80.285,48.841L-74.436,47.495L-75.121,44.155L-81.027,45.218ZM10.942,124.518L14.644,124.577L14.596,118.576L11.186,118.52L10.942,124.518ZM-57.889,-37.179L-53.398,-33.197L-51.075,-35.693L-55.369,-39.887L-57.889,-37.179ZM-51.051,-44.082L-46.982,-39.67L-44.422,-41.923L-48.273,-46.526L-51.051,-44.082ZM27.669,-66.162L27.709,-65.764L27.769,-65.505L27.827,-65.312L27.978,-65.015L28.169,-64.732L28.29,-64.579L28.868,-64.133L29.018,-64.061L29.395,-63.928L29.526,-63.906L29.688,-63.868L29.788,-63.862L30.113,-63.857L30.279,-63.877L30.535,-63.922L30.662,-63.963L30.966,-64.079L31.133,-64.179L31.251,-64.241L31.356,-64.325L31.767,-64.738L31.875,-64.865L31.927,-64.95L32.1,-65.299L32.159,-65.456L32.181,-65.588L32.26,-65.968L32.259,-66.228L32.254,-66.395L32.21,-66.652L32.169,-66.814L32.081,-67.059L31.952,-67.286L31.858,-67.462L31.694,-67.664L31.608,-67.766L31.462,-67.896L31.359,-67.981L31.027,-68.182L30.848,-68.273L30.539,-68.375L30.377,-68.413L30.181,-68.441L30.08,-68.447L29.745,-68.435L29.58,-68.416L29.322,-68.355L29.164,-68.299L28.978,-68.225L28.809,-68.116L28.423,-67.854L28.329,-67.759L28.074,-67.45L27.955,-67.249L27.835,-67.011L27.745,-66.689L27.695,-66.495L27.674,-66.296L27.669,-66.162ZM-3.532,122.912L0.115,123.525L0.967,117.584L-2.397,117.018L-3.532,122.912ZM-77.419,-3.862L-71.731,-1.948L-70.565,-5.151L-76.155,-7.341L-77.419,-3.862ZM-30.959,113.337L-27.655,115.004L-25.082,109.581L-28.129,108.046L-30.959,113.337ZM-75.605,63.851L-74.155,67.255L-68.692,64.772L-70.027,61.633L-75.605,63.851ZM22.763,-67.64L22.19,-70.584L16.301,-69.44L16.873,-66.495L22.763,-67.64ZM-80.102,5.476L-74.248,6.81L-73.412,3.506L-79.189,1.89L-80.102,5.476ZM-39.31,108.375L-36.191,110.362L-33.089,105.225L-35.963,103.393L-39.31,108.375ZM-78.875,0.773L-73.1,2.4L-72.095,-0.858L-77.789,-2.764L-78.875,0.773ZM-82.346,19.867L-76.357,20.31L-76.021,16.919L-81.98,16.186L-82.346,19.867ZM24.84,117.973L25.498,123.938L29.165,123.443L28.218,117.517L24.84,117.973ZM-8.285,121.895L-4.671,122.692L-3.524,116.8L-6.852,116.068L-8.285,121.895ZM-43.291,105.584L-40.273,107.727L-36.916,102.749L-39.699,100.777L-43.291,105.584ZM-71.524,72.669L-69.742,75.909L-64.554,72.892L-66.196,69.906L-71.524,72.669ZM-63.803,85.019L-61.555,87.958L-56.876,84.196L-58.949,81.489L-63.803,85.019ZM-82.597,30.737L-82.405,34.433L-76.418,33.975L-76.598,30.57L-82.597,30.737ZM-26.607,115.499L-23.224,116.998L-20.928,111.455L-24.043,110.073L-26.607,115.499ZM-12.979,120.643L-9.411,121.619L-7.969,115.793L-11.258,114.894L-12.979,120.643ZM-47.126,102.601L-44.218,104.89L-40.618,100.089L-43.297,97.977L-47.126,102.601ZM-81.792,40.42L-81.233,44.076L-75.323,43.026L-75.841,39.656L-81.792,40.42ZM-47.383,-47.265L-43.537,-42.658L-40.867,-44.776L-44.485,-49.569L-47.383,-47.265ZM-39.591,-53.069L-36.225,-48.099L-33.357,-49.941L-36.475,-55.068L-39.591,-53.069ZM-81.835,15.032L-75.88,15.777L-75.378,12.407L-81.287,11.375L-81.835,15.032ZM-69.327,-21.505L-64.136,-18.494L-62.353,-21.403L-67.396,-24.658L-69.327,-21.505ZM-64,-29.628L-59.136,-26.115L-57.075,-28.83L-61.763,-32.573L-64,-29.628ZM-23.374,-58.672L-23.946,-61.616L-29.836,-60.472L-29.263,-57.527L-23.374,-58.672ZM-50.805,99.427L-48.015,101.86L-44.179,97.243L-46.749,95.002L-50.805,99.427ZM-75.728,-8.42L-70.144,-6.223L-68.82,-9.363L-74.295,-11.829L-75.728,-8.42Z" style="fill:rgb(255,0,0);"/>
        </g>
        <g transform="matrix(0.799895,-0.187325,0.187325,0.799895,65.9095,-140.355)">
            <g transform="matrix(12.1723,0,0,12.1723,410.828,478.7)">
            </g>
            <text x="393.92px" y="478.7px" style="font-family:'BigNoodleTitling';font-size:12.172px;fill:rgb(35,31,32);">RA01</text>
        </g>
    </g>
</svg>
