<?xml version="1.0" encoding="UTF-8" standalone="no"?>
<!DOCTYPE svg PUBLIC "-//W3C//DTD SVG 1.1//EN" "http://www.w3.org/Graphics/SVG/1.1/DTD/svg11.dtd">
<svg width="100%" height="100%" viewBox="0 0 342 567" version="1.1" xmlns="http://www.w3.org/2000/svg" xmlns:xlink="http://www.w3.org/1999/xlink" xml:space="preserve" xmlns:serif="http://www.serif.com/" style="fill-rule:evenodd;clip-rule:evenodd;stroke-linejoin:round;stroke-miterlimit:2;">
    <g transform="matrix(1,0,0,1,-254.302,-141.774)">
        <g transform="matrix(2.83465,0,0,2.83465,496.994,347.074)">
            <path d="M-85.616,26.968L-85.579,24.475L-85.464,22.011L-85.302,19.523L-85.068,17.067L-84.781,14.59L-84.424,12.149L-84.015,9.691L-83.54,7.27L-83.008,4.834L-82.413,2.44L-81.76,0.034L-81.048,-2.329L-80.278,-4.7L-79.45,-7.024L-78.562,-9.353L-77.621,-11.633L-76.617,-13.915L-75.564,-16.146L-74.447,-18.375L-73.287,-20.552L-72.062,-22.723L-70.793,-24.839L-69.46,-26.946L-68.091,-28.997L-66.655,-31.036L-65.186,-33.018L-63.65,-34.982L-62.084,-36.888L-60.452,-38.771L-58.795,-40.599L-57.072,-42.401L-55.327,-44.145L-53.515,-45.857L-51.684,-47.511L-49.79,-49.132L-47.881,-50.694L-45.908,-52.219L-43.924,-53.686L-41.878,-55.11L-39.825,-56.476L-37.71,-57.796L-35.592,-59.059L-33.414,-60.272L-31.235,-61.43L-29,-62.533L-26.766,-63.583L-24.478,-64.573L-22.198,-65.51L-19.863,-66.385L-17.538,-67.21L-15.162,-67.968L-12.798,-68.674L-10.389,-69.312L-7.994,-69.903L-5.555,-70.421L-3.133,-70.893L-0.672,-71.289L1.769,-71.641L4.247,-71.912L6.703,-72.143L9.193,-72.29L11.657,-72.4L14.15,-72.425L16.617,-72.413L19.107,-72.312L21.571,-72.178L24.054,-71.953L26.601,-71.686L27.209,-71.606L29.064,-71.342L29.183,-71.329L30.915,-71.058L31.162,-71L31.532,-70.899L31.77,-70.81L32.238,-70.604L32.463,-70.483L32.889,-70.201L33.095,-70.052L33.281,-69.878L33.663,-69.518L33.836,-69.306L34.004,-69.101L34.19,-68.817L34.353,-68.553L34.443,-68.366L34.661,-67.858L34.79,-67.463L34.84,-67.156L34.919,-66.832L34.955,-66.282L34.966,-66.074L34.949,-65.763L34.916,-65.432L34.857,-65.126L34.811,-64.909L34.751,-64.709L34.648,-64.392L34.524,-64.107L34.383,-63.806L34.165,-63.454L33.985,-63.173L33.846,-63L33.643,-62.763L33.408,-62.526L33.093,-62.257L32.829,-62.052L32.471,-61.842L32.085,-61.622L31.698,-61.475L31.386,-61.356L31.081,-61.293L30.758,-61.214L30.552,-61.194L30.22,-61.157L29.805,-61.172L29.25,-61.204L29.148,-61.218L26.925,-61.531L24.703,-61.844L22.468,-62.046L20.233,-62.248L15.751,-62.428L13.507,-62.407L11.263,-62.386L9.023,-62.253L6.782,-62.121L4.552,-61.876L2.322,-61.631L0.108,-61.274L-2.106,-60.918L-4.302,-60.453L-6.497,-59.987L-8.667,-59.413L-10.837,-58.838L-15.109,-57.476L-17.212,-56.687L-19.314,-55.899L-23.43,-54.117L-25.443,-53.125L-27.456,-52.133L-29.416,-51.041L-31.376,-49.949L-33.279,-48.761L-35.181,-47.573L-38.865,-45.009L-42.416,-42.263L-44.121,-40.806L-45.826,-39.348L-47.457,-37.806L-49.087,-36.264L-50.638,-34.642L-52.19,-33.019L-53.657,-31.323L-55.124,-29.627L-57.892,-26.093L-59.183,-24.258L-60.475,-22.424L-62.871,-18.631L-65.079,-14.724L-66.084,-12.717L-67.088,-10.71L-67.992,-8.656L-68.896,-6.603L-70.495,-2.41L-71.883,1.859L-73.056,6.188L-74.013,10.575L-74.751,15L-75.264,19.456L-75.557,23.936L-75.627,28.423L-75.471,32.906L-75.283,35.142L-75.095,37.378L-74.794,39.603L-74.494,41.827L-74.083,44.032L-73.671,46.237L-72.631,50.604L-72.002,52.757L-71.374,54.91L-69.905,59.152L-69.064,61.232L-68.223,63.311L-66.339,67.385L-65.297,69.371L-64.255,71.357L-63.114,73.29L-61.974,75.223L-59.503,78.969L-58.175,80.778L-56.848,82.587L-54.018,86.071L-52.517,87.738L-51.016,89.405L-49.434,90.995L-47.852,92.586L-46.192,94.097L-44.533,95.608L-41.067,98.461L-37.465,101.134L-35.599,102.381L-33.733,103.627L-31.807,104.779L-29.882,105.93L-25.92,108.038L-21.861,109.948L-17.707,111.65L-13.476,113.144L-11.325,113.785L-9.174,114.427L-6.995,114.96L-4.817,115.493L-2.614,115.915L-0.411,116.337L1.812,116.65L4.034,116.963L6.269,117.165L8.504,117.367L12.99,117.549L15.233,117.528L17.476,117.506L21.955,117.24L26.415,116.75L28.631,116.395L30.847,116.04L30.946,116.577L31.55,119.81L32.376,124.253L32.676,125.869L30.241,126.261L27.78,126.656L25.328,126.928L22.851,127.2L20.389,127.348L17.901,127.497L15.433,127.525L12.939,127.549L10.474,127.457L7.983,127.356L5.524,127.141L3.042,126.916L0.6,126.58L-1.869,126.233L-4.294,125.776L-6.743,125.305L-9.142,124.73L-11.564,124.139L-13.931,123.447L-16.32,122.734L-18.652,121.925L-21.001,121.095L-23.289,120.173L-25.596,119.227L-27.836,118.192L-30.092,117.132L-32.278,115.989L-34.479,114.819L-36.605,113.567L-38.744,112.287L-40.807,110.934L-42.88,109.55L-44.875,108.096L-46.875,106.61L-48.794,105.06L-50.72,103.476L-52.56,101.834L-54.404,100.156L-56.162,98.424L-57.92,96.655L-59.589,94.839L-61.256,92.987L-62.832,91.09L-64.406,89.155L-65.889,87.184L-67.364,85.174L-68.747,83.131L-70.119,81.05L-71.401,78.941L-72.669,76.795L-73.843,74.628L-75.001,72.419L-76.068,70.194L-77.117,67.932L-78.074,65.657L-79.005,63.345L-79.847,61.027L-80.664,58.673L-81.392,56.314L-82.091,53.921L-82.701,51.532L-83.278,49.106L-83.77,46.687L-84.226,44.237L-84.597,41.798L-84.932,39.327L-85.184,36.873L-85.393,34.388L-85.523,31.926L-85.608,29.436L-85.616,26.968ZM-70.65,67.611L-74.303,62.851L-76.683,64.678L-73.03,69.438L-70.65,67.611ZM28.378,-66.193L28.38,-65.958L28.433,-65.751L28.468,-65.599L28.531,-65.454L28.663,-65.25L28.748,-65.118L28.839,-65.037L29.007,-64.873L29.194,-64.773L29.328,-64.69L29.587,-64.605L29.735,-64.569L30.009,-64.566L30.223,-64.572L30.368,-64.616L30.557,-64.664L30.715,-64.756L30.923,-64.867L31.07,-64.997L31.248,-65.204L31.397,-65.434L31.465,-65.603L31.54,-65.868L31.559,-65.988L31.559,-66.111L31.543,-66.422L31.477,-66.656L31.396,-66.876L31.258,-67.068L31.157,-67.22L31.071,-67.306L30.943,-67.389L30.694,-67.576L30.522,-67.637L30.183,-67.732L29.97,-67.744L29.735,-67.733L29.586,-67.702L29.363,-67.628L29.224,-67.565L29.102,-67.474L28.905,-67.346L28.824,-67.255L28.714,-67.144L28.635,-67.012L28.495,-66.778L28.443,-66.603L28.385,-66.375L28.378,-66.193ZM22.763,-67.64L22.19,-70.584L16.301,-69.44L16.873,-66.495L22.763,-67.64ZM-70.65,-12.492L-73.03,-14.318L-76.683,-9.558L-74.303,-7.732L-70.65,-12.492ZM-77.498,1.06L-80.498,1.06L-80.498,7.06L-77.498,7.06L-77.498,1.06ZM-42.038,104.899L-45.691,100.139L-48.071,101.965L-44.418,106.725L-42.038,104.899ZM-77.498,48.06L-80.498,48.06L-80.498,54.06L-77.498,54.06L-77.498,48.06ZM22.763,122.759L16.873,121.614L16.301,124.559L22.19,125.704L22.763,122.759ZM-23.374,113.791L-29.263,112.646L-29.836,115.591L-23.946,116.736L-23.374,113.791ZM-23.374,-58.672L-23.946,-61.616L-29.836,-60.472L-29.263,-57.527L-23.374,-58.672ZM-42.038,-49.779L-44.418,-51.606L-48.071,-46.845L-45.691,-45.019L-42.038,-49.779Z" style="fill:rgb(255,205,0);"/>
        </g>
        <g transform="matrix(0.799895,-0.187325,0.187325,0.799895,65.9095,-140.355)">
            <g transform="matrix(12.1723,0,0,12.1723,412.373,478.7)">
            </g>
            <text x="393.92px" y="478.7px" style="font-family:'BigNoodleTitling';font-size:12.172px;fill:rgb(35,31,32);">RA02</text>
        </g>
    </g>
</svg>
