<?xml version="1.0" encoding="UTF-8" standalone="no"?>
<!DOCTYPE svg PUBLIC "-//W3C//DTD SVG 1.1//EN" "http://www.w3.org/Graphics/SVG/1.1/DTD/svg11.dtd">
<svg width="100%" height="100%" viewBox="0 0 336 292" version="1.1" xmlns="http://www.w3.org/2000/svg" xmlns:xlink="http://www.w3.org/1999/xlink" xml:space="preserve" xmlns:serif="http://www.serif.com/" style="fill-rule:evenodd;clip-rule:evenodd;stroke-linejoin:round;stroke-miterlimit:2;">
    <g transform="matrix(1,0,0,1,-254.302,-417.511)">
        <g transform="matrix(2.83465,0,0,2.83465,496.994,347.074)">
            <path d="M-75.563,30.273L-75.471,32.906L-75.283,35.142L-75.095,37.378L-74.794,39.603L-74.494,41.827L-74.083,44.032L-73.671,46.237L-72.631,50.604L-72.002,52.757L-71.374,54.91L-69.905,59.152L-69.064,61.232L-68.223,63.311L-66.339,67.385L-65.297,69.371L-64.255,71.357L-63.114,73.29L-61.974,75.223L-59.503,78.969L-58.175,80.778L-56.848,82.587L-54.018,86.071L-52.517,87.738L-51.016,89.405L-49.434,90.995L-47.852,92.586L-46.192,94.097L-44.533,95.608L-41.067,98.461L-37.465,101.134L-35.599,102.381L-33.733,103.627L-31.807,104.779L-29.882,105.93L-25.92,108.038L-21.861,109.948L-17.707,111.65L-13.476,113.144L-11.325,113.785L-9.174,114.427L-6.995,114.96L-4.817,115.493L-2.614,115.915L-0.411,116.337L1.812,116.65L4.034,116.963L6.269,117.165L8.504,117.367L12.99,117.549L15.233,117.528L17.476,117.506L21.955,117.24L26.415,116.75L28.631,116.395L30.847,116.04L30.946,116.577L31.55,119.81L32.376,124.253L32.676,125.869L30.241,126.261L27.78,126.656L25.328,126.928L22.851,127.2L20.389,127.348L17.901,127.497L15.433,127.525L12.939,127.549L10.474,127.457L7.983,127.356L5.524,127.141L3.042,126.916L0.6,126.58L-1.869,126.233L-4.294,125.776L-6.743,125.305L-9.142,124.73L-11.564,124.139L-13.931,123.447L-16.32,122.734L-18.652,121.925L-21.001,121.095L-23.289,120.173L-25.596,119.227L-27.836,118.192L-30.092,117.132L-32.278,115.989L-34.479,114.819L-36.605,113.567L-38.744,112.287L-40.807,110.934L-42.88,109.55L-44.875,108.096L-46.875,106.61L-48.794,105.06L-50.72,103.476L-52.56,101.834L-54.404,100.156L-56.162,98.424L-57.92,96.655L-59.589,94.839L-61.256,92.987L-62.832,91.09L-64.406,89.155L-65.889,87.184L-67.364,85.174L-68.747,83.131L-70.119,81.05L-71.401,78.941L-72.669,76.795L-73.843,74.628L-75.001,72.419L-76.068,70.194L-77.117,67.932L-78.074,65.657L-79.005,63.345L-79.847,61.027L-80.664,58.673L-81.392,56.314L-82.091,53.921L-82.701,51.532L-83.278,49.106L-83.77,46.687L-84.226,44.237L-84.597,41.798L-84.932,39.327L-85.184,36.873L-85.393,34.388L-85.523,31.926L-85.608,29.436L-85.616,26.968L-85.584,24.848L-80.386,24.848L-80.386,30.273L-75.563,30.273ZM22.763,122.759L16.873,121.614L16.301,124.559L22.19,125.704L22.763,122.759ZM-23.374,113.791L-29.263,112.646L-29.836,115.591L-23.946,116.736L-23.374,113.791ZM-70.65,67.611L-74.303,62.851L-76.683,64.678L-73.03,69.438L-70.65,67.611ZM-42.038,104.899L-45.691,100.139L-48.071,101.965L-44.418,106.725L-42.038,104.899ZM-77.498,48.06L-80.498,48.06L-80.498,54.06L-77.498,54.06L-77.498,48.06Z" style="fill:rgb(224,255,0);"/>
        </g>
        <g transform="matrix(-0.808104,-0.147953,0.147953,-0.808104,732.734,1129.28)">
            <g transform="matrix(12.1723,0,0,12.1723,412.532,478.7)">
            </g>
            <text x="393.92px" y="478.7px" style="font-family:'BigNoodleTitling';font-size:12.172px;fill:rgb(35,31,32);">RA0B</text>
        </g>
    </g>
</svg>
