<?xml version="1.0" encoding="UTF-8" standalone="no"?>
<!DOCTYPE svg PUBLIC "-//W3C//DTD SVG 1.1//EN" "http://www.w3.org/Graphics/SVG/1.1/DTD/svg11.dtd">
<svg width="100%" height="100%" viewBox="0 0 342 323" version="1.1" xmlns="http://www.w3.org/2000/svg" xmlns:xlink="http://www.w3.org/1999/xlink" xml:space="preserve" xmlns:serif="http://www.serif.com/" style="fill-rule:evenodd;clip-rule:evenodd;stroke-linejoin:round;stroke-miterlimit:2;">
    <g transform="matrix(1,0,0,1,-254.393,-110.095)">
        <g id="RA03A" transform="matrix(2.83465,0,0,2.83465,496.948,347.072)">
            <path d="M-85.568,24.849L-85.392,20.718L-85.367,20.345L-84.934,15.801L-84.891,15.43L-84.23,10.913L-84.169,10.545L-83.29,6.066L-83.21,5.701L-82.11,1.273L-82.012,0.912L-80.695,-3.46L-80.579,-3.816L-79.047,-8.115L-78.914,-8.464L-77.174,-12.682L-77.023,-13.024L-75.075,-17.152L-74.907,-17.487L-72.761,-21.513L-72.577,-21.839L-70.23,-25.754L-70.03,-26.07L-67.496,-29.864L-67.281,-30.17L-64.563,-33.837L-64.333,-34.131L-61.435,-37.656L-61.19,-37.939L-58.125,-41.32L-57.866,-41.591L-54.637,-44.816L-54.365,-45.073L-50.978,-48.133L-50.694,-48.376L-47.163,-51.265L-46.867,-51.494L-43.197,-54.208L-42.89,-54.422L-39.092,-56.949L-38.775,-57.147L-34.855,-59.484L-34.528,-59.666L-30.498,-61.807L-30.162,-61.973L-26.031,-63.915L-25.688,-64.063L-21.469,-65.796L-21.119,-65.927L-16.816,-67.453L-16.46,-67.567L-12.087,-68.875L-11.725,-68.97L-7.295,-70.064L-6.929,-70.142L-2.449,-71.015L-2.08,-71.075L2.437,-71.725L2.808,-71.766L7.353,-72.192L7.726,-72.215L12.285,-72.418L12.659,-72.422L17.222,-72.399L17.596,-72.384L22.153,-72.136L22.525,-72.102L25.2,-71.822L27.163,-71.618L27.147,-73.071L27.013,-74.518L26.806,-75.587L26.599,-76.656L26.388,-77.351L26.177,-78.046L25.865,-78.842L25.533,-79.701L25.47,-79.953L25.418,-80.208L25.426,-80.596L25.417,-80.984L25.485,-81.301L25.545,-81.554L25.619,-81.734L25.754,-82.028L25.887,-82.25L26.037,-82.46L26.253,-82.7L26.49,-82.922L26.697,-83.079L26.975,-83.244L27.268,-83.384L27.704,-83.508L27.89,-83.561L28.213,-83.595L28.538,-83.6L28.922,-83.548L29.114,-83.515L29.298,-83.453L29.544,-83.376L29.881,-83.18L30.112,-83.06L30.387,-82.786L30.683,-82.536L30.843,-82.331L31.141,-81.861L31.573,-81.121L31.972,-80.361L32.338,-79.587L32.671,-78.798L32.83,-78.401L33.096,-77.587L33.363,-76.772L33.468,-76.357L33.663,-75.522L33.734,-75.1L33.893,-74.257L34.067,-72.555L34.098,-70.843L34.04,-69.987L33.981,-69.131L34.12,-68.918L34.308,-68.632L34.333,-68.593L34.346,-68.564L34.732,-67.665L34.751,-67.605L34.759,-67.559L34.898,-66.985L34.963,-66.009L34.965,-65.978L34.962,-65.931L34.904,-65.344L34.895,-65.299L34.813,-64.912L34.804,-64.883L34.62,-64.321L34.602,-64.278L34.352,-63.745L34.319,-63.692L34.001,-63.194L33.755,-62.886L33.724,-62.85L33.308,-62.431L33.261,-62.39L32.793,-62.028L32.739,-61.996L32.056,-61.607L31.998,-61.585L31.445,-61.374L31.399,-61.364L30.827,-61.225L30.796,-61.222L30.209,-61.156L30.146,-61.159L29.163,-61.216L29.148,-61.218L28.815,-61.265L24.703,-61.844L20.568,-62.218L20.233,-62.248L15.751,-62.428L15.415,-62.425L11.263,-62.386L10.927,-62.366L6.782,-62.121L2.657,-61.667L2.322,-61.631L-1.774,-60.972L-2.106,-60.918L-2.436,-60.849L-6.497,-59.987L-10.511,-58.924L-10.837,-58.838L-11.157,-58.736L-15.109,-57.476L-18.999,-56.017L-19.314,-55.899L-23.122,-54.251L-23.43,-54.117L-27.154,-52.281L-27.456,-52.133L-31.082,-50.113L-31.376,-49.949L-31.662,-49.771L-35.181,-47.573L-38.589,-45.201L-38.865,-45.009L-42.15,-42.469L-42.416,-42.263L-45.571,-39.566L-45.826,-39.348L-48.842,-36.495L-49.087,-36.264L-49.319,-36.021L-52.19,-33.019L-54.904,-29.881L-55.124,-29.627L-57.892,-26.093L-58.085,-25.818L-60.475,-22.424L-62.871,-18.631L-65.079,-14.724L-66.938,-11.011L-67.088,-10.71L-68.76,-6.911L-68.896,-6.603L-70.495,-2.41L-71.883,1.859L-73.056,6.188L-74.013,10.575L-74.751,15L-75.264,19.456L-75.557,23.936L-75.627,28.423L-75.615,28.759L-75.562,30.274L-80.37,30.274L-80.37,24.849L-85.568,24.849ZM-77.482,1.061L-80.482,1.061L-80.482,7.061L-77.482,7.061L-77.482,1.061ZM-42.022,-49.778L-44.402,-51.605L-48.055,-46.844L-45.675,-45.018L-42.022,-49.778ZM-23.357,-58.671L-23.93,-61.615L-29.82,-60.471L-29.247,-57.526L-23.357,-58.671ZM22.779,-67.639L22.207,-70.583L16.317,-69.439L16.889,-66.494L22.779,-67.639ZM27.674,-66.007L27.696,-65.812L27.748,-65.567L27.822,-65.33L27.952,-65.059L28.047,-64.885L28.242,-64.657L28.333,-64.539L28.554,-64.343L28.847,-64.151L29.021,-64.054L29.21,-63.988L29.542,-63.895L29.883,-63.86L30.083,-63.853L30.33,-63.894L30.619,-63.946L30.884,-64.067L31.203,-64.21L31.395,-64.359L31.623,-64.556L31.722,-64.664L31.842,-64.823L31.994,-65.074L32.065,-65.207L32.149,-65.487L32.217,-65.675L32.231,-65.925L32.266,-66.173L32.255,-66.374L32.2,-66.668L32.156,-66.863L31.998,-67.231L31.78,-67.57L31.68,-67.681L31.505,-67.859L31.351,-67.987L31.096,-68.145L30.874,-68.264L30.685,-68.332L30.444,-68.398L30.247,-68.431L29.952,-68.443L29.756,-68.408L29.408,-68.382L29.126,-68.276L28.853,-68.162L28.726,-68.083L28.603,-68L28.415,-67.833L28.204,-67.624L28.013,-67.331L27.864,-67.076L27.826,-66.983L27.777,-66.843L27.737,-66.699L27.695,-66.357L27.674,-66.007ZM-70.634,-12.491L-73.014,-14.317L-76.667,-9.557L-74.286,-7.731L-70.634,-12.491Z" style="fill:rgb(0,255,114);"/>
        </g>
        <g transform="matrix(0.799895,-0.187325,0.187325,0.799895,65.9095,-140.355)">
            <g transform="matrix(12.1723,0,0,12.1723,412.422,478.7)">
            </g>
            <text x="393.92px" y="478.7px" style="font-family:'BigNoodleTitling';font-size:12.172px;fill:rgb(35,31,32);">RA03</text>
        </g>
    </g>
</svg>
