<?xml version="1.0" encoding="UTF-8" standalone="no"?>
<!DOCTYPE svg PUBLIC "-//W3C//DTD SVG 1.1//EN" "http://www.w3.org/Graphics/SVG/1.1/DTD/svg11.dtd">
<svg width="100%" height="100%" viewBox="0 0 105 151" version="1.1" xmlns="http://www.w3.org/2000/svg" xmlns:xlink="http://www.w3.org/1999/xlink" xml:space="preserve" xmlns:serif="http://www.serif.com/" style="fill-rule:evenodd;clip-rule:evenodd;stroke-linejoin:round;stroke-miterlimit:2;">
    <g transform="matrix(1,0,0,1,-314.391,-350.079)">
        <g id="RP01" transform="matrix(0.579199,0,0,1.05848,151.786,-0.0778436)">
            <path d="M310.104,346.878L280.739,346.878L280.739,330.81L461.82,330.81L461.82,346.878L447.138,346.878L447.138,456.617L461.82,456.617L461.82,472.685L447.138,472.685L447.138,472.745L310.104,472.745L310.104,472.685L280.739,472.685L280.739,456.617L310.104,456.617L310.104,346.878Z" style="fill:rgb(0,218,255);"/>
        </g>
        <g transform="matrix(0.821537,0,0,0.821537,-6.99023,102.068)">
            <g transform="matrix(12.1723,0,0,12.1723,412.191,478.7)">
            </g>
            <text x="393.92px" y="478.7px" style="font-family:'BigNoodleTitling';font-size:12.172px;fill:rgb(35,31,32);">RP02</text>
        </g>
    </g>
</svg>
