<?xml version="1.0" encoding="UTF-8" standalone="no"?>
<!DOCTYPE svg PUBLIC "-//W3C//DTD SVG 1.1//EN" "http://www.w3.org/Graphics/SVG/1.1/DTD/svg11.dtd">
<svg width="100%" height="100%" viewBox="0 0 297 374" version="1.1" xmlns="http://www.w3.org/2000/svg" xmlns:xlink="http://www.w3.org/1999/xlink" xml:space="preserve" xmlns:serif="http://www.serif.com/" style="fill-rule:evenodd;clip-rule:evenodd;stroke-linejoin:round;stroke-miterlimit:2;">
    <g transform="matrix(1,0,0,1,-547.157,-304.376)">
        <g id="BB01" transform="matrix(2.83465,0,0,2.83465,397.912,533.648)">
            <path d="M52.65,-72.279L52.65,-80.882L65.412,-80.878L65.412,-77.873L77.58,-77.873L77.58,-80.875L89.748,-80.871L89.748,-77.873L101.917,-77.873L101.917,-80.868L118.213,-80.864L124.087,-75.892L122.243,-73.699L127.746,-69.081L129.571,-71.25L135.055,-66.608L133.25,-64.463L138.753,-59.844L138.753,-59.845L138.754,-59.844L140.539,-61.966L146.023,-57.325L144.257,-55.226L149.761,-50.608L151.506,-52.683L156.987,-48.062L157.18,-47.899L156.555,-47.16L156.314,-46.85L156.194,-46.707L154.885,-45.071L153.616,-43.404L152.389,-41.706L151.204,-39.979L150.061,-38.223L148.962,-36.439L147.907,-34.629L146.897,-32.794L145.932,-30.934L145.014,-29.052L144.141,-27.147L143.316,-25.221L142.538,-23.276L141.808,-21.313L141.126,-19.332L140.494,-17.335L139.91,-15.322L139.376,-13.297L138.892,-11.258L138.794,-10.794L133.622,-11.828L133.038,-8.885L138.206,-7.852L138.075,-7.149L137.742,-5.081L137.46,-3.005L137.229,-0.923L137.05,1.164L136.921,3.255L136.844,5.349L136.818,7.443L136.844,9.538L136.921,11.632L137.05,13.723L137.229,15.81L137.46,17.892L137.742,19.968L138.075,22.036L138.458,24.096L138.892,26.145L139.376,28.184L139.91,30.209L140.494,32.221L141.127,34.218L141.411,35.044L141.189,35.125L136.426,36.854L136.997,38.419L136.985,38.423L136.984,38.423L137.444,39.715L132.711,41.416L131.663,38.583L126.901,40.312L126.9,40.312L127.901,43.144L123.183,44.839L122.121,42.047L117.375,43.77L117.375,19.144L114.375,19.144L114.375,44.859L111.674,45.839L112.752,48.654L106.7,50.805L102.623,50.805L102.623,47.805L92.628,47.805L92.628,50.805L82.634,50.805L82.634,47.805L72.639,47.805L72.639,50.805L62.645,50.805L62.645,47.805L52.65,47.805L52.65,42.756L55.65,42.756L55.65,30.756L52.65,30.756L52.65,-60.279L55.65,-60.279L55.65,-72.279L52.65,-72.279ZM114.375,-4.876L117.375,-4.876L117.375,-13.925L114.375,-13.925L114.375,-4.876ZM126.864,-44.697L129.636,-43.549L136.9,-61.086L134.128,-62.234L126.864,-44.697ZM120.399,-21.249L117.627,-22.397L114.632,-15.166L117.403,-14.018L117.404,-14.018L120.399,-21.249ZM123.109,-10.871L128.074,-9.878L128.654,-12.822L123.685,-13.816L123.109,-10.871Z" style="fill:rgb(230,210,189);"/>
        </g>
    </g>
</svg>
