<?xml version="1.0" encoding="UTF-8" standalone="no"?>
<!DOCTYPE svg PUBLIC "-//W3C//DTD SVG 1.1//EN" "http://www.w3.org/Graphics/SVG/1.1/DTD/svg11.dtd">
<svg width="100%" height="100%" viewBox="0 0 297 374" version="1.1" xmlns="http://www.w3.org/2000/svg" xmlns:xlink="http://www.w3.org/1999/xlink" xml:space="preserve" xmlns:serif="http://www.serif.com/" style="fill-rule:evenodd;clip-rule:evenodd;stroke-linejoin:round;stroke-miterlimit:2;">
    <g transform="matrix(1,0,0,1,-1.84176,-304.333)">
        <g id="BF01-v1.1" serif:id="BF01 v1.1" transform="matrix(2.83465,0,0,2.83465,412.06,533.579)">
            <path d="M-131.715,-55.207L-133.609,-57.457L-133.589,-57.481L-128.106,-62.123L-126.188,-59.844L-120.708,-64.443L-122.642,-66.74L-122.622,-66.765L-117.138,-71.406L-115.181,-69.081L-109.701,-73.679L-111.674,-76.024L-111.654,-76.048L-105.648,-80.864L-103.926,-80.864L-88.758,-80.848L-88.758,-77.873L-76.61,-77.873L-76.61,-80.826L-76.59,-80.85L-64.422,-80.869L-64.422,-77.873L-52.273,-77.873L-52.273,-80.847L-52.253,-80.871L-40.085,-80.873L-40.085,-77.873L-40.09,-72.255L-43.085,-72.255L-43.085,-60.255L-40.1,-60.255L-40.104,-55.125L-43.104,-55.125L-43.104,-48.564L-40.104,-48.564L-40.104,18.278L-43.104,18.278L-43.104,34.481L-43.085,34.481L-43.085,42.779L-40.092,42.779L-40.085,47.805L-40.105,47.829L-50.079,47.829L-50.079,50.805L-50.099,50.829L-60.094,50.829L-60.094,47.829L-70.068,47.829L-70.068,50.805L-70.088,50.829L-80.083,50.829L-80.083,47.829L-90.057,47.829L-90.057,50.805L-90.077,50.829L-94.162,50.819L-100.14,48.649L-99.129,45.864L-109.582,42.069L-110.588,44.825L-110.608,44.849L-115.37,43.121L-114.355,40.336L-119.108,38.611L-120.112,41.369L-120.132,41.393L-124.893,39.664L-123.881,36.878L-128.86,35.054L-128.581,34.243L-127.948,32.246L-127.365,30.233L-126.831,28.208L-126.347,26.169L-125.913,24.12L-125.529,22.06L-125.197,19.992L-124.915,17.916L-124.684,15.834L-124.504,13.747L-124.376,11.656L-124.298,9.562L-124.273,7.468L-124.298,5.373L-124.376,3.279L-124.504,1.188L-124.684,-0.899L-124.915,-2.981L-125.197,-5.057L-125.529,-7.125L-125.664,-7.847L-120.473,-8.887L-121.057,-11.828L-126.253,-10.789L-126.347,-11.234L-126.831,-13.273L-127.365,-15.298L-127.948,-17.31L-128.581,-19.307L-129.262,-21.289L-129.992,-23.252L-130.77,-25.197L-131.596,-27.123L-132.468,-29.027L-133.387,-30.91L-134.352,-32.77L-135.362,-34.605L-136.417,-36.415L-137.516,-38.198L-138.658,-39.954L-139.843,-41.682L-141.07,-43.38L-142.339,-45.047L-143.648,-46.683L-144.716,-48.077L-144.696,-48.101L-139.073,-52.839L-137.196,-50.608L-137.195,-50.609L-137.195,-50.608L-131.715,-55.207ZM-89.695,15.755L-52.315,15.755L-51.686,15.672L-51.099,15.429L-50.599,15.045L-50.23,14.564L-49.987,13.978L-49.904,13.349L-49.904,11.398L-49.812,10.772L-49.57,10.188L-49.193,9.68L-49.173,9.656L-48.665,9.279L-48.081,9.037L-47.455,8.944L-46.115,8.944L-45.486,8.862L-44.899,8.619L-44.399,8.235L-44.03,7.754L-43.787,7.167L-43.704,6.538L-43.704,-40.732L-43.787,-41.361L-44.03,-41.947L-44.416,-42.451L-44.919,-42.837L-45.506,-43.08L-46.134,-43.162L-47.474,-43.162L-48.1,-43.255L-48.684,-43.497L-49.193,-43.874L-49.57,-44.382L-49.812,-44.966L-49.904,-45.592L-49.904,-47.168L-49.987,-47.796L-50.23,-48.383L-50.616,-48.886L-51.119,-49.272L-51.706,-49.515L-52.334,-49.598L-77.865,-49.598L-78.491,-49.691L-79.075,-49.932L-79.583,-50.309L-79.96,-50.818L-80.202,-51.402L-80.295,-52.028L-80.295,-58.086L-80.377,-58.715L-80.62,-59.302L-81.006,-59.805L-81.509,-60.191L-82.096,-60.434L-82.725,-60.516L-89.715,-60.516L-90.344,-60.434L-90.93,-60.191L-91.43,-59.807L-91.8,-59.326L-92.043,-58.739L-92.125,-58.11L-92.125,-27.944L-92.218,-27.318L-92.46,-26.734L-92.837,-26.226L-92.857,-26.202L-93.365,-25.825L-93.949,-25.583L-94.575,-25.49L-97.312,-25.49L-97.94,-25.407L-98.527,-25.164L-99.027,-24.781L-99.396,-24.299L-99.639,-23.713L-99.722,-23.084L-99.722,6.514L-99.639,7.143L-99.396,7.73L-98.809,8.387L-98.507,8.619L-97.921,8.862L-97.292,8.944L-94.555,8.944L-93.929,9.037L-93.345,9.279L-92.837,9.656L-92.46,10.164L-92.218,10.748L-92.125,11.374L-92.125,13.325L-92.043,13.953L-91.8,14.54L-91.414,15.043L-90.911,15.429L-90.324,15.672L-89.695,15.755ZM-101.739,-13.901L-104.809,-13.901L-104.809,4.124L-101.74,4.124L-101.739,4.124L-101.739,-13.901ZM-114.319,-44.673L-117.065,-43.535L-107.834,-21.249L-105.088,-22.387L-105.087,-22.387L-114.318,-44.673L-114.319,-44.673ZM-104.809,31.292L-101.829,31.292L-101.829,16.168L-104.809,16.168L-104.809,31.292ZM-74.864,-55.054L-50.446,-55.054L-50.446,-58.054L-74.864,-58.054L-74.864,-55.054ZM-114.177,12.912L-111.177,12.912L-111.177,9.588L-114.177,9.588L-114.177,12.912ZM-116.088,-12.822L-115.508,-9.878L-110.544,-10.871L-111.12,-13.816L-116.088,-12.822ZM-100.086,-55.054L-94.268,-55.054L-94.268,-58.054L-100.086,-58.054L-100.086,-55.054ZM-93.652,37.551L-63.871,37.551L-63.871,34.551L-93.652,34.551L-93.652,37.551ZM-123.65,-35.316L-122.089,-32.381L-119.44,-33.79L-121.001,-36.725L-123.65,-35.316ZM-103.086,-30.242L-100.086,-30.242L-100.086,-51.597L-103.086,-51.597L-103.086,-30.242ZM-103.086,37.518L-100.086,37.518L-100.086,34.537L-103.086,34.537L-103.086,37.518ZM-103.086,14.837L-100.086,14.837L-100.086,8.285L-103.086,8.285L-103.086,14.837Z" style="fill:rgb(230,210,189);"/>
        </g>
    </g>
</svg>
