<?xml version="1.0" encoding="UTF-8" standalone="no"?>
<!DOCTYPE svg PUBLIC "-//W3C//DTD SVG 1.1//EN" "http://www.w3.org/Graphics/SVG/1.1/DTD/svg11.dtd">
<svg width="100%" height="100%" viewBox="0 0 27 22" version="1.1" xmlns="http://www.w3.org/2000/svg" xmlns:xlink="http://www.w3.org/1999/xlink" xml:space="preserve" xmlns:serif="http://www.serif.com/" style="fill-rule:evenodd;clip-rule:evenodd;stroke-linejoin:round;stroke-miterlimit:2;">
    <g transform="matrix(1,0,0,1,-124.059,-148.38)">
        <g id="BF02" transform="matrix(1.73572e-16,-2.83465,2.83465,1.73572e-16,10.455,-21.12)">
            <path d="M-63.499,49.189L-62.636,48.927L-61.84,48.502L-61.143,47.93L-60.571,47.233L-60.146,46.437L-59.884,45.574L-59.796,44.677L-59.884,43.78L-60.146,42.917L-60.571,42.121L-61.143,41.424L-61.84,40.852L-62.636,40.427L-63.499,40.165L-64.396,40.077L-64.396,43.015L-67.396,43.015L-67.396,46.339L-64.396,46.339L-64.396,49.277L-63.499,49.189Z" style="fill:rgb(172,142,111);fill-rule:nonzero;"/>
        </g>
    </g>
</svg>
