<?xml version="1.0" encoding="UTF-8" standalone="no"?>
<!DOCTYPE svg PUBLIC "-//W3C//DTD SVG 1.1//EN" "http://www.w3.org/Graphics/SVG/1.1/DTD/svg11.dtd">
<svg width="100%" height="100%" viewBox="0 0 228 181" version="1.1" xmlns="http://www.w3.org/2000/svg" xmlns:xlink="http://www.w3.org/1999/xlink" xml:space="preserve" xmlns:serif="http://www.serif.com/" style="fill-rule:evenodd;clip-rule:evenodd;stroke-linejoin:round;stroke-miterlimit:2;">
    <g transform="matrix(1,0,0,1,-308.882,-116.498)">
        <g id="BL01" transform="matrix(2.83465,0,0,2.83465,409.678,518.556)">
            <path d="M-7.408,-77.996L-32.558,-77.996L-32.558,-90.164L-35.558,-90.164L-35.558,-102.332L-32.558,-102.332L-32.558,-114.501L-35.558,-114.501L-35.558,-126.669L-32.558,-126.669L-32.558,-141.837L41.782,-141.837L41.782,-126.669L44.782,-126.669L44.782,-114.501L41.782,-114.501L41.782,-102.332L44.782,-102.332L44.782,-90.164L41.782,-90.164L41.782,-77.996L16.592,-77.996L16.592,-80.955L-7.408,-80.955L-7.408,-77.996Z" style="fill:rgb(230,210,189);"/>
        </g>
    </g>
</svg>
