<?xml version="1.0" encoding="UTF-8" standalone="no"?>
<!DOCTYPE svg PUBLIC "-//W3C//DTD SVG 1.1//EN" "http://www.w3.org/Graphics/SVG/1.1/DTD/svg11.dtd">
<svg width="100%" height="100%" viewBox="0 0 228 143" version="1.1" xmlns="http://www.w3.org/2000/svg" xmlns:xlink="http://www.w3.org/1999/xlink" xml:space="preserve" xmlns:serif="http://www.serif.com/" style="fill-rule:evenodd;clip-rule:evenodd;stroke-linejoin:round;stroke-miterlimit:2;">
    <g transform="matrix(1,0,0,1,-70.809,-133.664)">
        <g id="BL02-v1.1" serif:id="BL02 v1.1" transform="matrix(2.83465,0,0,2.83465,171.604,680.745)">
            <path d="M41.743,-142.707L41.743,-149.891L44.743,-149.891L44.743,-157.076L41.743,-157.076L41.743,-164.26L44.743,-164.26L44.743,-171.445L41.743,-171.445L41.743,-178.629L44.743,-178.629L44.743,-185.814L41.743,-185.814L41.743,-192.998L-32.558,-192.998L-32.558,-185.819L-35.558,-185.814L-35.558,-178.629L-32.558,-178.629L-32.558,-171.449L-35.558,-171.449L-35.558,-164.26L-32.558,-164.26L-32.558,-157.076L-35.558,-157.076L-35.558,-149.891L-32.558,-149.891L-32.558,-142.707L41.743,-142.707ZM-28.979,-189.578L12.221,-189.578L12.221,-178.392L-28.979,-178.392L-28.979,-189.578ZM5.929,-169.151L41.743,-169.151L41.743,-165.492L5.929,-165.492L5.929,-169.151ZM-31.564,-165.492L-31.564,-169.151L-19.148,-169.151L-19.148,-165.492L-31.564,-165.492Z" style="fill:rgb(230,210,189);fill-rule:nonzero;"/>
        </g>
    </g>
</svg>
