<?xml version="1.0" encoding="UTF-8" standalone="no"?>
<!DOCTYPE svg PUBLIC "-//W3C//DTD SVG 1.1//EN" "http://www.w3.org/Graphics/SVG/1.1/DTD/svg11.dtd">
<svg width="100%" height="100%" viewBox="0 0 157 228" version="1.1" xmlns="http://www.w3.org/2000/svg" xmlns:xlink="http://www.w3.org/1999/xlink" xml:space="preserve" xmlns:serif="http://www.serif.com/" style="fill-rule:evenodd;clip-rule:evenodd;stroke-linejoin:round;stroke-miterlimit:2;">
    <g transform="matrix(1,0,0,1,-339.354,-377.164)">
        <g id="BM01" transform="matrix(1.73572e-16,-2.83465,2.83465,1.73572e-16,547.519,503.993)">
            <path d="M-32.558,-18.123L44.743,-18.123L44.743,-25.951L41.743,-25.951L41.743,-50.088L44.743,-50.088L44.743,-69.07L41.743,-69.07L41.743,-73.436L5.929,-73.436L5.929,-69.07L-19.148,-69.07L-19.148,-73.436L-31.564,-73.436L-31.564,-69.07L-32.558,-69.07L-32.558,-50.087L-35.558,-50.087L-35.558,-25.951L-32.558,-25.951L-32.558,-18.123ZM2.337,-52.15L1.956,-52.274L1.617,-52.489L1.343,-52.781L1.15,-53.132L1.05,-53.521L1.05,-53.922L1.15,-54.31L1.343,-54.662L1.617,-54.954L1.956,-55.169L2.337,-55.293L2.738,-55.318L3.132,-55.243L3.495,-55.072L3.804,-54.817L4.039,-54.492L4.187,-54.119L4.237,-53.721L4.187,-53.324L4.039,-52.951L3.804,-52.626L3.495,-52.371L3.132,-52.2L2.738,-52.125L2.337,-52.15ZM32.636,-52.224L32.262,-52.379L31.941,-52.625L31.695,-52.946L31.54,-53.32L31.487,-53.721L31.54,-54.123L31.695,-54.496L31.941,-54.818L32.262,-55.064L32.636,-55.219L33.037,-55.271L33.438,-55.219L33.812,-55.064L34.133,-54.818L34.38,-54.496L34.534,-54.123L34.587,-53.721L34.534,-53.32L34.38,-52.946L34.133,-52.625L33.812,-52.379L33.438,-52.224L33.037,-52.171L32.636,-52.224ZM16.469,-27.607L15.39,-27.797L14.334,-28.094L13.313,-28.495L12.337,-28.995L11.416,-29.59L10.559,-30.274L9.774,-31.04L9.069,-31.88L8.451,-32.786L7.927,-33.749L7.501,-34.759L7.177,-35.807L6.96,-36.882L6.851,-37.973L6.851,-39.07L6.96,-40.161L7.177,-41.236L7.501,-42.284L7.927,-43.294L8.451,-44.257L9.069,-45.163L9.774,-46.003L10.559,-46.769L11.416,-47.453L12.337,-48.048L13.313,-48.548L14.334,-48.949L15.39,-49.246L16.469,-49.436L17.563,-49.518L18.659,-49.491L19.747,-49.354L20.816,-49.11L21.856,-48.761L22.856,-48.31L23.805,-47.762L24.696,-47.122L25.518,-46.396L26.264,-45.592L26.926,-44.718L27.498,-43.782L27.973,-42.794L28.349,-41.764L28.619,-40.701L28.783,-39.617L28.837,-38.521L28.783,-37.426L28.619,-36.342L28.349,-35.279L27.973,-34.249L27.498,-33.261L26.926,-32.325L26.264,-31.451L25.518,-30.647L24.696,-29.921L23.805,-29.281L22.856,-28.733L21.856,-28.282L20.816,-27.933L19.747,-27.689L18.659,-27.552L17.563,-27.525L16.469,-27.607ZM32.636,-21.824L32.262,-21.979L31.941,-22.225L31.695,-22.546L31.54,-22.92L31.487,-23.321L31.54,-23.723L31.695,-24.096L31.941,-24.417L32.262,-24.664L32.636,-24.819L33.037,-24.871L33.438,-24.819L33.812,-24.664L34.133,-24.417L34.38,-24.096L34.534,-23.723L34.587,-23.321L34.534,-22.92L34.38,-22.546L34.133,-22.225L33.812,-21.979L33.438,-21.824L33.037,-21.771L32.636,-21.824ZM2.236,-21.824L1.862,-21.979L1.541,-22.225L1.295,-22.546L1.14,-22.92L1.087,-23.321L1.14,-23.723L1.295,-24.096L1.541,-24.417L1.862,-24.664L2.236,-24.819L2.637,-24.871L3.038,-24.819L3.412,-24.664L3.733,-24.417L3.98,-24.096L4.134,-23.723L4.187,-23.321L4.134,-22.92L3.98,-22.546L3.733,-22.225L3.412,-21.979L3.038,-21.824L2.637,-21.771L2.236,-21.824Z" style="fill:rgb(171,142,112);fill-rule:nonzero;"/>
        </g>
    </g>
</svg>
