<?xml version="1.0" encoding="UTF-8" standalone="no"?>
<!DOCTYPE svg PUBLIC "-//W3C//DTD SVG 1.1//EN" "http://www.w3.org/Graphics/SVG/1.1/DTD/svg11.dtd">
<svg width="100%" height="100%" viewBox="0 0 228 177" version="1.1" xmlns="http://www.w3.org/2000/svg" xmlns:xlink="http://www.w3.org/1999/xlink" xml:space="preserve" xmlns:serif="http://www.serif.com/" style="fill-rule:evenodd;clip-rule:evenodd;stroke-linejoin:round;stroke-miterlimit:2;">
    <g transform="matrix(1,0,0,1,-547.157,-116.721)">
        <g id="BM02" transform="matrix(2.83465,0,0,2.83465,647.953,156.193)">
            <path d="M-10.963,43.519L5.929,43.519L5.929,48.321L41.743,48.321L41.743,43.519L44.743,43.519L44.743,19.144L41.743,19.144L41.743,-4.876L44.743,-4.876L44.743,-13.925L-35.558,-13.925L-35.558,4.124L-32.558,4.124L-32.558,16.144L-35.558,16.144L-35.558,31.292L-32.558,31.292L-27.688,27.076L-19.721,27.076L-19.721,43.515L-19.148,48.321L-10.963,48.321L-10.963,43.519ZM2.337,-6.489L1.956,-6.613L1.617,-6.827L1.343,-7.12L1.15,-7.471L1.05,-7.86L1.05,-8.261L1.15,-8.649L1.343,-9.001L1.617,-9.293L1.956,-9.508L2.337,-9.632L2.738,-9.657L3.132,-9.582L3.495,-9.411L3.804,-9.156L4.039,-8.831L4.187,-8.458L4.237,-8.06L4.187,-7.662L4.039,-7.29L3.804,-6.965L3.495,-6.709L3.132,-6.539L2.738,-6.463L2.337,-6.489ZM32.636,-6.563L32.262,-6.718L31.941,-6.964L31.695,-7.285L31.54,-7.659L31.487,-8.06L31.54,-8.461L31.695,-8.835L31.941,-9.156L32.262,-9.403L32.636,-9.558L33.037,-9.61L33.438,-9.558L33.812,-9.403L34.133,-9.156L34.38,-8.835L34.534,-8.461L34.587,-8.06L34.534,-7.659L34.38,-7.285L34.133,-6.964L33.812,-6.718L33.438,-6.563L33.037,-6.51L32.636,-6.563ZM16.469,18.054L15.39,17.864L14.334,17.567L13.313,17.166L12.337,16.666L11.416,16.071L10.559,15.387L9.774,14.622L9.069,13.782L8.451,12.876L7.927,11.912L7.501,10.902L7.177,9.854L6.96,8.779L6.851,7.688L6.851,6.591L6.96,5.5L7.177,4.425L7.501,3.377L7.927,2.367L8.451,1.404L9.069,0.498L9.774,-0.342L10.559,-1.108L11.416,-1.792L12.337,-2.387L13.313,-2.887L14.334,-3.288L15.39,-3.585L16.469,-3.775L17.563,-3.857L18.659,-3.83L19.747,-3.693L20.817,-3.449L21.856,-3.1L22.856,-2.649L23.805,-2.101L24.696,-1.46L25.518,-0.735L26.264,0.069L26.926,0.943L27.498,1.879L27.973,2.867L28.349,3.897L28.619,4.96L28.783,6.044L28.837,7.14L28.783,8.235L28.619,9.319L28.349,10.382L27.973,11.412L27.498,12.4L26.926,13.336L26.264,14.21L25.518,15.014L24.696,15.74L23.805,16.38L22.856,16.928L21.856,17.379L20.817,17.729L19.747,17.973L18.659,18.109L17.563,18.136L16.469,18.054ZM32.636,23.837L32.262,23.682L31.941,23.436L31.695,23.115L31.54,22.741L31.487,22.34L31.54,21.939L31.695,21.565L31.941,21.244L32.262,20.997L32.636,20.843L33.037,20.79L33.438,20.843L33.812,20.997L34.133,21.244L34.38,21.565L34.534,21.939L34.587,22.34L34.534,22.741L34.38,23.115L34.133,23.436L33.812,23.682L33.438,23.837L33.037,23.89L32.636,23.837ZM2.236,23.837L1.862,23.682L1.541,23.436L1.295,23.115L1.14,22.741L1.087,22.34L1.14,21.939L1.295,21.565L1.541,21.244L1.862,20.997L2.236,20.843L2.637,20.79L3.038,20.843L3.412,20.997L3.733,21.244L3.98,21.565L4.134,21.939L4.187,22.34L4.134,22.741L3.98,23.115L3.733,23.436L3.412,23.682L3.038,23.837L2.637,23.89L2.236,23.837Z" style="fill:rgb(171,142,112);fill-rule:nonzero;"/>
        </g>
    </g>
</svg>
