<?xml version="1.0" encoding="UTF-8" standalone="no"?>
<!DOCTYPE svg PUBLIC "-//W3C//DTD SVG 1.1//EN" "http://www.w3.org/Graphics/SVG/1.1/DTD/svg11.dtd">
<svg width="100%" height="100%" viewBox="0 0 228 61" version="1.1" xmlns="http://www.w3.org/2000/svg" xmlns:xlink="http://www.w3.org/1999/xlink" xml:space="preserve" xmlns:serif="http://www.serif.com/" style="fill-rule:evenodd;clip-rule:evenodd;stroke-linejoin:round;stroke-miterlimit:2;">
    <g transform="matrix(1,0,0,1,-70.8084,-699.575)">
        <g id="BM03" transform="matrix(2.83465,0,0,2.83465,431.075,842.734)">
            <path d="M-49.793,-29.295L-49.778,-29.312L-49.793,-35.05L-49.793,-35.097L-46.793,-35.097L-46.793,-40.173L-49.793,-40.173L-49.793,-45.231L-46.793,-45.231L-46.793,-50.504L-127.094,-50.504L-127.094,-45.231L-124.133,-45.231L-124.133,-40.173L-127.094,-40.173L-127.094,-35.097L-124.133,-35.097L-124.133,-29.295L-49.793,-29.295ZM-94.12,-46.89L-52.786,-46.89L-52.786,-35.754L-94.12,-35.754L-94.12,-46.89Z" style="fill:rgb(172,142,111);fill-rule:nonzero;"/>
        </g>
    </g>
</svg>
