<?xml version="1.0" encoding="UTF-8" standalone="no"?>
<!DOCTYPE svg PUBLIC "-//W3C//DTD SVG 1.1//EN" "http://www.w3.org/Graphics/SVG/1.1/DTD/svg11.dtd">
<svg width="100%" height="100%" viewBox="0 0 228 151" version="1.1" xmlns="http://www.w3.org/2000/svg" xmlns:xlink="http://www.w3.org/1999/xlink" xml:space="preserve" xmlns:serif="http://www.serif.com/" style="fill-rule:evenodd;clip-rule:evenodd;stroke-linejoin:round;stroke-miterlimit:2;">
    <g transform="matrix(1,0,0,1,-308.882,-684.615)">
        <g id="BR01" transform="matrix(2.83465,0,0,2.83465,409.678,540.6)">
            <path d="M16.592,50.805L44.743,50.805L44.743,60.8L41.689,60.8L41.689,70.794L44.743,70.794L44.743,80.788L41.689,80.788L41.689,90.783L44.743,90.783L44.743,100.777L41.689,100.777L41.689,103.777L-32.558,103.777L-32.558,100.777L-35.558,100.777L-35.558,90.783L-32.558,90.783L-32.558,80.788L-35.558,80.789L-35.558,70.794L-32.558,70.794L-32.558,60.8L-35.558,60.8L-35.558,50.805L-7.408,50.805L-7.408,53.805L16.592,53.805L16.592,50.805Z" style="fill:rgb(230,210,189);"/>
        </g>
    </g>
</svg>
