<?xml version="1.0" encoding="UTF-8" standalone="no"?>
<!DOCTYPE svg PUBLIC "-//W3C//DTD SVG 1.1//EN" "http://www.w3.org/Graphics/SVG/1.1/DTD/svg11.dtd">
<svg width="100%" height="100%" viewBox="0 0 228 108" version="1.1" xmlns="http://www.w3.org/2000/svg" xmlns:xlink="http://www.w3.org/1999/xlink" xml:space="preserve" xmlns:serif="http://www.serif.com/" style="fill-rule:evenodd;clip-rule:evenodd;stroke-linejoin:round;stroke-miterlimit:2;">
    <g transform="matrix(1,0,0,1,-547.157,-706.756)">
        <g id="BR02-v1.1" serif:id="BR02 v1.1" transform="matrix(2.83465,0,0,2.83465,647.953,402.922)">
            <path d="M-35.559,145.15L44.743,145.15L44.743,139.878L41.782,139.878L41.782,134.819L44.743,134.819L44.743,129.744L41.782,129.744L41.782,124.694L44.743,124.694L44.743,113.546L41.689,113.546L41.689,107.186L-32.558,107.186L-32.606,113.545L-35.558,113.545L-35.558,124.694L-32.573,124.694L-32.558,129.704L-32.558,129.744L-35.558,129.744L-35.558,134.819L-32.558,134.819L-32.558,139.878L-35.558,139.878L-35.559,145.15ZM-29.262,126.917L-29.262,113.482L-22.762,113.482L-22.762,126.917L-29.262,126.917ZM5.929,115.329L41.689,115.329L41.795,119.61L5.929,119.61L5.929,115.329ZM-19.33,119.61L-19.33,115.329L-10.865,115.329L-10.865,119.61L-19.33,119.61ZM-29.431,141.536L-29.431,130.401L11.769,130.401L11.769,141.536L-29.431,141.536Z" style="fill:rgb(230,210,189);fill-rule:nonzero;"/>
        </g>
    </g>
</svg>
