<?xml version="1.0" encoding="UTF-8" standalone="no"?>
<!DOCTYPE svg PUBLIC "-//W3C//DTD SVG 1.1//EN" "http://www.w3.org/Graphics/SVG/1.1/DTD/svg11.dtd">
<svg width="100%" height="100%" viewBox="0 0 228 374" version="1.1" xmlns="http://www.w3.org/2000/svg" xmlns:xlink="http://www.w3.org/1999/xlink" xml:space="preserve" xmlns:serif="http://www.serif.com/" style="fill-rule:evenodd;clip-rule:evenodd;stroke-linejoin:round;stroke-miterlimit:2;">
    <g transform="matrix(1,0,0,1,-303.938,-304.333)">
        <g id="BU01-v1.1" serif:id="BU01 v1.1" transform="matrix(1.66211,0,0,1.62806,-268.403,-301.949)">
            <path d="M349.461,408.266L344.345,408.266L344.345,387.373L349.461,387.373L349.461,377.547L392.354,377.547L392.354,372.394L433.285,372.394L433.285,377.547L476.177,377.547L476.177,387.373L481.294,387.373L481.294,408.266L476.177,408.266L476.177,566.768L481.294,566.768L481.294,587.662L476.177,587.662L476.177,596.454L433.285,596.454L433.285,601.677L392.354,601.677L392.354,596.454L349.461,596.454L349.461,587.662L344.345,587.662L344.345,573.238L349.461,573.238L349.461,408.266ZM439.325,383.689L387.479,383.689L356.576,415.238L355.478,558.762L386.38,590.311L439.325,590.311L470.228,558.762L470.228,415.238L439.325,383.689Z" style="fill:rgb(171,142,112);"/>
        </g>
    </g>
</svg>
